<?xml version="1.0" encoding="UTF-8" ?>
<!DOCTYPE svg PUBLIC "-//W3C//DTD SVG 1.1//EN" "http://www.w3.org/Graphics/SVG/1.1/DTD/svg11.dtd">
<svg width="1024pt" height="1024pt" viewBox="0 0 1024 1024" version="1.1" xmlns="http://www.w3.org/2000/svg">
	<g id="#1b121cff">
		<path fill="#1b121c" stroke="#1b121c" stroke-width="0.09375" opacity="1.00" d=" M 564.34 89.34 C 572.87 83.61 580.95 77.17 589.79 71.91 C 600.30 85.93 609.99 100.56 620.20 114.81 C 729.71 270.63 839.20 426.46 948.71 582.28 C 950.88 585.24 953.22 588.17 954.38 591.72 C 946.87 595.87 940.15 601.24 933.09 606.07 C 773.11 718.42 613.16 830.83 453.19 943.19 C 447.18 947.10 441.76 951.94 435.32 955.16 C 314.69 783.27 194.27 611.22 73.69 439.29 C 72.81 437.97 71.98 436.61 71.16 435.26 C 235.44 319.81 399.97 204.68 564.34 89.34 M 550.20 114.18 C 395.43 222.56 240.58 330.82 85.88 439.29 C 92.55 449.75 100.12 459.61 107.13 469.85 C 152.48 534.17 197.83 598.49 243.19 662.80 C 250.14 672.37 256.53 682.37 263.87 691.65 C 288.25 674.50 312.39 656.98 336.64 639.64 C 337.87 638.83 339.25 638.31 340.61 637.78 C 380.79 695.19 420.99 752.59 461.22 809.96 C 491.99 788.75 522.53 767.18 553.13 745.72 C 547.10 736.40 540.69 727.30 534.03 718.42 C 519.17 728.36 504.76 738.96 490.01 749.06 C 489.04 749.57 487.54 750.82 486.69 749.42 C 483.54 745.78 481.15 741.57 478.29 737.72 C 471.64 727.89 464.35 718.49 458.12 708.39 C 472.54 698.78 486.58 688.63 500.79 678.71 C 486.38 657.40 471.33 636.52 456.67 615.38 C 447.44 601.94 437.68 588.84 428.79 575.17 C 434.26 570.74 440.24 567.01 445.94 562.88 C 495.57 528.14 545.17 493.36 594.83 458.66 C 592.40 454.36 589.35 450.47 586.56 446.42 C 573.41 427.59 560.21 408.80 547.05 389.98 C 537.91 376.62 528.17 363.66 519.43 350.04 C 535.19 338.34 551.69 327.64 567.48 315.97 C 563.90 309.86 559.47 304.31 555.52 298.44 C 549.30 289.80 543.54 280.82 537.03 272.41 C 521.42 282.84 506.27 293.94 490.78 304.54 C 486.63 300.15 483.69 294.81 480.04 290.03 C 479.01 288.24 477.05 286.43 477.69 284.18 C 478.97 282.93 480.46 281.90 481.93 280.87 C 510.70 260.97 539.15 240.60 568.01 220.84 C 577.83 234.15 587.04 247.91 596.62 261.40 C 620.78 295.92 644.96 330.42 669.12 364.94 C 675.78 374.11 681.79 383.78 688.89 392.62 C 704.47 382.03 719.79 371.03 735.27 360.28 C 744.66 353.46 754.55 347.29 763.62 340.05 C 762.78 338.67 761.95 337.30 761.07 335.96 C 703.25 253.39 645.40 170.84 587.62 88.24 C 574.91 96.53 562.70 105.59 550.20 114.18 Z" />
	</g>
	<g id="#f2eddbff">
		<path fill="#f2eddb" stroke="#f2eddb" stroke-width="0.09375" opacity="1.00" d=" M 550.20 114.18 C 562.70 105.59 574.91 96.53 587.62 88.24 C 645.40 170.84 703.25 253.39 761.07 335.96 C 761.95 337.30 762.78 338.67 763.62 340.05 C 754.55 347.29 744.66 353.46 735.27 360.28 C 719.79 371.03 704.47 382.03 688.89 392.62 C 681.79 383.78 675.78 374.11 669.12 364.94 C 644.96 330.42 620.78 295.92 596.62 261.40 C 587.04 247.91 577.83 234.15 568.01 220.84 C 539.15 240.60 510.70 260.97 481.93 280.87 C 480.46 281.90 478.97 282.93 477.69 284.18 C 477.05 286.43 479.01 288.24 480.04 290.03 C 483.69 294.81 486.63 300.15 490.78 304.54 C 506.27 293.94 521.42 282.84 537.03 272.41 C 543.54 280.82 549.30 289.80 555.52 298.44 C 559.47 304.31 563.90 309.86 567.48 315.97 C 551.69 327.64 535.19 338.34 519.43 350.04 C 528.17 363.66 537.91 376.62 547.05 389.98 C 560.21 408.80 573.41 427.59 586.56 446.42 C 589.35 450.47 592.40 454.36 594.83 458.66 C 545.17 493.36 495.57 528.14 445.94 562.88 C 440.24 567.01 434.26 570.74 428.79 575.17 C 437.68 588.84 447.44 601.94 456.67 615.38 C 471.33 636.52 486.38 657.40 500.79 678.71 C 486.58 688.63 472.54 698.78 458.12 708.39 C 464.35 718.49 471.64 727.89 478.29 737.72 C 481.15 741.57 483.54 745.78 486.69 749.42 C 487.54 750.82 489.04 749.57 490.01 749.06 C 504.76 738.96 519.17 728.36 534.03 718.42 C 540.69 727.30 547.10 736.40 553.13 745.72 C 522.53 767.18 491.99 788.75 461.22 809.96 C 420.99 752.59 380.79 695.19 340.61 637.78 C 339.25 638.31 337.87 638.83 336.64 639.64 C 312.39 656.98 288.25 674.50 263.87 691.65 C 256.53 682.37 250.14 672.37 243.19 662.80 C 197.83 598.49 152.48 534.17 107.13 469.85 C 100.12 459.61 92.55 449.75 85.88 439.29 C 240.58 330.82 395.43 222.56 550.20 114.18 Z" />
	</g>
</svg>